# xmcd
#
# Track frame offsets:
#	150
#	18879
#	34864
#	61179
#	89767
#	118649
#	138979
#	166447
#	189779
#	222118
#
# Disc length: 3335 seconds
#
# Revision: 1
# Processed by: cddbd v1.5.2PL0 Copyright (c) Steve Scherf et al.
# Submitted via: audiograbber 1.83.01
#
DISCID=810d050a
DTITLE=Michael Katon - Ror' Outta Hell - Ror' Outta Hell
DYEAR=2017
DGENRE=Blues, Rock
TTITLE0=Let me in
TTITLE1=Bought and Sold
TTITLE2=In your Town
TTITLE3=Cradle Rock
TTITLE4=Mississippi Sheiks
TTITLE5=I take what i want
TTITLE6=Who's that coming
TTITLE7=Used to be
TTITLE8=Walk on hot Coals
TTITLE9=A million Miles away
EXTD=
EXTT0=
EXTT1=
EXTT2=
EXTT3=
EXTT4=
EXTT5=
EXTT6=
EXTT7=
EXTT8=
EXTT9=
PLAYORDER=
